# xmcd
#
# Track frame offsets:
#	150
#	19391
#	57090
#	101399
#	133899
#	166217
#	208563
#	239040
#	264281
#	297485
#
# Disc length: 4443 seconds
#
# Revision: 1
# Processed by: cddbd v1.5.1PL2 Copyright (c) Steve Scherf et al.
# Submitted via: audiograbber 1.83.01
#
DISCID=9211590a
DTITLE=Phil Guy - Another Guy
DYEAR=1900
DGENRE=Blues
TTITLE0=Goin' To New York - Boogie In The Dark
TTITLE1=Ain't That Loving You
TTITLE2=Texas Flood
TTITLE3=I Miss You So
TTITLE4=Rock Me Baby
TTITLE5=The Sky Is Cryin' - Good Things
TTITLE6=Wine Headed Woman
TTITLE7=Messin' With The Kid
TTITLE8=Help Me
TTITLE9=Little Red Rooster
EXTD=
EXTT0=
EXTT1=
EXTT2=
EXTT3=
EXTT4=
EXTT5=
EXTT6=
EXTT7=
EXTT8=
EXTT9=
PLAYORDER=
